<svg version="1.1" id="Layer_1" xmlns="http://www.w3.org/2000/svg" xmlns:xlink="http://www.w3.org/1999/xlink" x="0px" y="0px"
	 width="100%" viewBox="0 0 1024 672" enable-background="new 0 0 1024 672" xml:space="preserve">
<path fill="#000000" opacity="1.000000" stroke="none" 
	d="
M343.297913,211.667313 
	C362.299652,227.745453 374.800781,247.345520 378.359833,271.858948 
	C383.988251,310.625458 371.302094,342.576141 341.432068,367.769043 
	C335.945953,372.396088 335.860626,372.297485 339.352417,378.306366 
	C340.356628,380.034454 341.510468,381.691132 342.355560,383.493164 
	C344.772034,388.645721 347.992493,392.496521 354.020111,393.916656 
	C358.542786,394.982178 361.538635,398.694153 363.880676,402.663879 
	C374.881653,421.310272 386.041321,439.866577 396.774109,458.666443 
	C404.104645,471.506775 397.948883,485.699341 383.992767,488.682861 
	C376.309357,490.325378 369.392700,487.927094 365.149353,481.383179 
	C352.283325,461.541779 340.312531,441.141083 328.603088,420.592773 
	C326.316956,416.580963 326.243347,412.393616 327.348328,408.019928 
	C327.745148,406.449158 329.029907,404.775116 328.165344,403.224487 
	C324.601440,396.832336 320.968872,390.469360 317.075867,384.275177 
	C315.830566,382.293762 313.693390,383.766968 312.027893,384.289093 
	C297.761627,388.761780 283.326355,391.098145 268.262421,389.471588 
	C237.991745,386.203186 214.018448,372.440491 196.599976,347.454773 
	C184.659988,330.327606 178.040192,311.164368 178.052124,290.380615 
	C178.081772,238.716888 212.053162,197.686279 261.613434,189.708313 
	C291.911469,184.831100 318.967377,192.651352 343.297913,211.667313 
M360.720245,294.260437 
	C361.269806,284.882477 360.528290,275.643982 357.799194,266.609222 
	C345.883911,227.163452 306.634949,202.335892 265.994995,208.546921 
	C218.916702,215.741943 188.508545,260.773895 198.945023,307.070679 
	C207.665756,345.756348 244.658447,375.728180 289.174988,370.022980 
	C326.813263,365.199280 358.296326,332.861359 360.720245,294.260437 
z"/>
<path fill="#000000" opacity="1.000000" stroke="none" 
	d="
M836.840576,336.828674 
	C832.172119,341.690002 832.171997,341.690125 827.753479,337.238617 
	C827.401672,336.884155 827.054077,336.525543 826.702087,336.171265 
	C820.628113,330.058777 820.627991,330.058838 812.626160,333.418457 
	C776.218201,348.704498 738.623169,319.996735 742.943726,280.284027 
	C747.562622,237.827652 791.986023,222.046844 822.822571,242.924057 
	C838.292114,253.397369 843.973755,269.260651 843.651001,287.502625 
	C843.476624,297.359070 840.829285,306.558258 835.667297,314.952332 
	C834.406128,317.003174 834.201477,318.544373 836.074341,320.156342 
	C836.450562,320.480133 836.761475,320.880127 837.101440,321.245941 
	C844.073059,328.748627 844.072998,328.748718 836.840576,336.828674 
M791.027283,317.604645 
	C795.768677,317.690887 800.576660,318.134979 805.098816,315.186127 
	C801.929993,311.597473 797.237671,308.604187 796.507202,304.841766 
	C795.680237,300.581879 801.810547,298.314972 804.195496,294.588898 
	C806.424133,291.106995 808.665955,291.668457 811.286804,294.551300 
	C813.657471,297.158905 815.834534,300.119141 819.198425,302.024170 
	C823.498291,294.683624 823.346252,287.016296 822.612183,279.385406 
	C821.414185,266.932434 811.701538,256.326782 800.162415,254.423538 
	C785.090576,251.937637 772.716675,258.001801 767.224915,270.908875 
	C759.354553,289.406311 766.824524,312.793579 791.027283,317.604645 
z"/>
<path fill="#000000" opacity="1.000000" stroke="none" 
	d="
M552.285889,266.582703 
	C563.606079,274.880127 567.558411,286.293823 567.883972,299.400970 
	C567.974487,303.042542 566.070862,304.258850 562.562195,304.232666 
	C548.238892,304.125732 533.914246,304.167999 519.590149,304.204803 
	C514.134949,304.218842 513.404480,305.386993 515.496948,310.397675 
	C519.538513,320.075897 534.353271,324.258606 542.200684,316.733795 
	C549.654297,309.586609 557.516357,312.982910 565.476868,312.194916 
	C564.696289,321.592285 552.978577,334.667053 537.453613,337.126465 
	C520.792297,339.765869 504.410339,331.735168 497.072906,316.802765 
	C489.492371,301.375519 493.076050,281.436340 505.496735,269.933899 
	C517.346558,258.960083 537.147034,257.448334 552.285889,266.582703 
M521.268372,279.643982 
	C518.140198,282.149719 515.238464,284.796753 514.984985,289.902283 
	C524.371033,289.902283 533.491943,289.980652 542.610474,289.867706 
	C546.878784,289.814850 547.509644,288.438538 545.382324,284.608704 
	C540.986206,276.694214 531.259216,274.471802 521.268372,279.643982 
z"/>
<path fill="#000000" opacity="1.000000" stroke="none" 
	d="
M450.502808,257.730957 
	C449.442017,254.805206 447.214142,255.304092 445.299164,255.285187 
	C438.971222,255.222641 432.639282,255.139694 426.315063,255.304001 
	C422.848480,255.394043 421.514648,254.016052 421.636932,250.599304 
	C421.796722,246.133560 421.676086,241.657776 421.676086,236.758606 
	C425.389587,236.528320 428.672607,236.157913 431.956726,236.148224 
	C452.774017,236.086838 473.592651,236.213867 494.408295,236.014694 
	C499.134064,235.969482 501.230652,237.273514 500.443726,242.249741 
	C500.084198,244.523193 500.176910,246.929077 500.449982,249.229111 
	C501.038605,254.186783 498.820129,255.621170 494.141174,255.336594 
	C488.665680,255.003571 483.143951,255.467499 477.661896,255.193024 
	C473.509827,254.985123 472.213196,256.508331 472.242188,260.634125 
	C472.401337,283.282440 472.324799,305.932434 472.310181,328.581879 
	C472.305847,335.285858 472.277649,335.293060 465.737366,335.323730 
	C462.573181,335.338562 459.387238,335.084930 456.249756,335.373169 
	C451.764771,335.785248 450.579803,333.869507 450.603149,329.597626 
	C450.733246,305.783997 450.615356,281.969025 450.502808,257.730957 
z"/>
<path fill="#000000" opacity="1.000000" stroke="none" 
	d="
M626.732544,332.975891 
	C611.748047,339.725372 597.610352,338.986267 584.266357,329.819855 
	C579.585571,326.604462 576.916077,321.783813 575.278564,316.359650 
	C574.412720,313.491791 575.476257,312.197632 578.270020,312.148438 
	C582.264954,312.078125 586.262268,312.153015 590.258118,312.116089 
	C592.592590,312.094543 593.698486,313.707275 595.006653,315.274292 
	C599.679871,320.872528 608.827515,322.721252 614.996948,319.460175 
	C617.345825,318.218658 619.184937,316.526581 619.125122,313.704193 
	C619.061768,310.715332 616.823730,309.316223 614.325745,308.657715 
	C609.507874,307.387695 604.602417,306.453918 599.765442,305.251068 
	C596.703064,304.489532 593.639526,303.655884 590.680298,302.571289 
	C582.972717,299.746460 577.346558,294.986847 576.706177,286.159882 
	C575.999878,276.425262 579.618225,268.553955 588.445801,264.264252 
	C601.419189,257.959869 614.592529,258.705017 627.266724,265.517761 
	C632.696716,268.436523 635.713745,273.430389 637.107849,279.348846 
	C637.833191,282.428680 637.167969,284.627441 633.249390,284.396698 
	C630.593994,284.240326 627.912781,284.237457 625.258850,284.409210 
	C621.733521,284.637360 619.147095,283.950562 616.933960,280.578003 
	C613.799561,275.801514 604.780090,274.634827 599.643372,277.665131 
	C597.709656,278.805817 596.138550,280.235107 596.284180,282.782959 
	C596.433960,285.404633 598.283875,286.683441 600.394470,287.240692 
	C606.498352,288.852112 612.671875,290.199524 618.817932,291.651550 
	C619.787842,291.880676 620.760193,292.100952 621.725586,292.347992 
	C630.512634,294.596527 637.709717,298.851624 639.135132,308.639191 
	C640.683044,319.268036 636.694336,327.546356 626.732544,332.975891 
z"/>
<path fill="#000000" opacity="1.000000" stroke="none" 
	d="
M676.032349,299.979797 
	C676.058228,303.304260 675.973389,306.139343 676.132263,308.960693 
	C676.472595,315.005676 679.130737,317.628601 685.218079,317.910767 
	C688.183960,318.048218 691.161377,317.934570 694.664795,317.934570 
	C695.589294,322.506866 695.177917,327.285736 694.928406,332.030365 
	C694.809265,334.295624 692.854797,334.821594 691.026123,335.236420 
	C685.774536,336.427795 680.452087,336.682678 675.155029,335.826385 
	C663.025024,333.865540 655.804199,325.403076 655.670837,313.026672 
	C655.565063,303.208435 655.496155,293.385742 655.683960,283.570282 
	C655.758545,279.676910 654.427185,278.289368 650.498962,278.343506 
	C643.672302,278.437683 643.669067,278.233185 643.652466,271.571411 
	C643.649963,270.572845 643.652100,269.574249 643.655212,268.575684 
	C643.676453,261.795471 643.684509,261.538330 650.381714,261.740417 
	C654.738037,261.871857 655.692017,260.023956 655.703430,256.120361 
	C655.739929,243.656525 655.854004,243.656860 668.381165,243.673889 
	C675.990845,243.684235 675.991272,243.684235 676.038696,251.431030 
	C676.110657,263.196533 675.060669,261.511871 686.090210,261.657257 
	C695.373718,261.779633 695.192566,260.369202 695.117004,270.955139 
	C695.063660,278.423431 695.068726,278.423462 687.700012,278.425262 
	C676.046509,278.428101 676.045776,278.428101 676.033081,289.997650 
	C676.029602,293.159821 676.032227,296.322021 676.032349,299.979797 
z"/>
<path fill="#000000" opacity="1.000000" stroke="none" 
	d="
M708.653748,278.999908 
	C708.657227,266.179077 708.757751,253.857025 708.604614,241.538132 
	C708.559937,237.944580 709.643555,236.379395 713.419067,236.503113 
	C716.893005,236.616974 720.440552,236.596649 723.863159,236.316895 
	C729.064819,235.891678 729.431213,238.392151 729.409912,242.472916 
	C729.285645,266.281433 729.351135,290.090973 729.350403,313.900146 
	C729.350220,319.561035 729.232239,325.224731 729.379578,330.881653 
	C729.462158,334.054047 728.298096,335.212341 725.058472,335.366516 
	C708.654114,336.147400 708.658875,336.225067 708.658752,319.958923 
	C708.658630,306.472595 708.655701,292.986237 708.653748,278.999908 
z"/>
<path fill="#000000" opacity="1.000000" stroke="none" 
	d="
M601.382446,464.748596 
	C596.408997,458.851868 596.285767,453.968658 601.279907,449.136383 
	C603.430603,447.055389 603.238098,445.599487 602.151733,443.140808 
	C600.005615,438.283905 602.141113,433.729156 606.977112,431.780273 
	C611.948914,429.776703 618.006592,431.849854 619.712219,436.284698 
	C621.939453,442.075775 618.207642,445.250946 613.856079,448.197815 
	C615.274536,450.707275 616.999573,452.536652 619.107117,453.962433 
	C621.007996,452.852203 620.851929,450.926758 621.669922,449.532959 
	C622.605591,447.938568 623.934875,447.612091 625.486389,448.087769 
	C627.539856,448.717285 627.078003,450.281036 626.604980,451.763580 
	C626.453430,452.238312 626.343811,452.756165 626.072815,453.158569 
	C623.258911,457.336609 623.219116,461.051178 627.709229,464.168030 
	C628.346802,464.610626 628.832214,465.414795 628.402710,466.587585 
	C624.881287,468.489777 622.313354,466.419556 619.746948,463.926758 
	C613.882202,467.730438 607.906311,469.315948 601.382446,464.748596 
M609.135681,452.642822 
	C606.242126,450.634918 604.834900,452.729431 603.811584,454.837341 
	C602.626038,457.279602 603.622314,459.573792 605.812866,460.781921 
	C609.027344,462.554749 612.300537,462.545990 615.447937,459.276337 
	C613.408936,457.112671 611.516541,455.104645 609.135681,452.642822 
M613.549438,441.899078 
	C615.039307,439.985352 615.048584,438.167175 612.850037,436.885406 
	C611.089294,435.858887 609.271301,436.101471 608.006958,437.840790 
	C606.745178,439.576508 607.237427,441.272308 608.495728,442.832581 
	C610.258057,445.017700 611.652649,443.481415 613.549438,441.899078 
z"/>
<path fill="#000000" opacity="1.000000" stroke="none" 
	d="
M567.493896,439.870239 
	C570.433716,439.499268 572.878662,439.712311 575.160217,440.982330 
	C576.008362,441.454468 576.700195,441.700806 577.862793,441.235535 
	C582.569641,439.351837 583.256165,439.836426 583.301941,444.840240 
	C583.367432,451.993378 583.465210,459.152832 583.242188,466.300018 
	C583.052246,472.388947 578.588928,476.673126 572.382202,477.259155 
	C565.598450,477.899689 561.298401,475.310883 559.786621,469.513062 
	C562.291504,467.974487 564.242004,469.056458 566.477722,470.480591 
	C571.950867,473.966919 576.870972,471.581573 577.326172,465.041321 
	C572.714111,466.558929 568.130615,468.375763 563.606934,465.222473 
	C560.879333,463.321167 559.351440,460.705841 558.436829,457.543701 
	C556.142212,449.610779 559.184265,443.305023 567.493896,439.870239 
M563.701111,451.246460 
	C562.743347,455.739288 564.295227,459.181183 568.377136,461.162079 
	C571.074646,462.471069 573.696472,461.516785 575.594116,459.352448 
	C578.132507,456.457489 578.323120,452.979980 577.001343,449.517761 
	C575.978577,446.838715 573.957153,445.220581 570.905640,445.201813 
	C567.196106,445.178925 565.092041,447.209015 563.701111,451.246460 
z"/>
<path fill="#000000" opacity="1.000000" stroke="none" 
	d="
M566.241455,400.714233 
	C568.578308,401.295502 568.097046,399.243927 568.454285,398.245575 
	C569.685486,394.804993 570.637329,391.263580 571.668579,387.752625 
	C572.256653,385.750336 573.427002,384.687836 575.643677,384.762573 
	C577.836914,384.836456 578.359314,386.411041 578.854370,388.007751 
	C580.319580,392.734222 581.726074,397.478882 583.447327,403.183533 
	C585.302002,397.423767 586.904907,392.715271 588.321472,387.951416 
	C589.257629,384.803101 591.105103,384.188171 594.774902,385.560944 
	C592.097229,393.853394 589.507446,402.024017 586.788330,410.151398 
	C586.316467,411.561646 584.845276,411.820526 583.427734,411.797516 
	C581.450562,411.765411 580.423096,410.617249 579.880127,408.866119 
	C578.504944,404.430756 577.129456,399.995483 575.503357,394.751678 
	C572.765625,399.202271 572.298584,403.611938 570.876648,407.649475 
	C570.134277,409.757507 569.565735,411.785187 566.719910,411.819550 
	C563.787415,411.854980 563.284363,409.712830 562.630920,407.620789 
	C560.361328,400.354523 558.085693,393.090118 555.787476,385.745392 
	C559.688599,383.900696 561.553467,385.051544 562.516113,388.522583 
	C563.626465,392.525787 564.926636,396.476349 566.241455,400.714233 
z"/>
<path fill="#000000" opacity="1.000000" stroke="none" 
	d="
M464.924255,410.056732 
	C461.983002,413.218140 460.076385,412.148071 458.546661,408.841461 
	C457.554291,406.696381 457.594940,403.482635 454.393738,403.194244 
	C450.436249,402.837677 446.338226,402.251282 442.511597,403.568512 
	C440.545715,404.245178 440.418427,406.842987 439.691223,408.657227 
	C438.407898,411.858856 436.466431,412.546509 432.989014,410.576630 
	C435.483368,403.833038 437.933502,397.166748 440.416382,390.512726 
	C441.813019,386.769806 443.278778,383.052734 444.684326,379.313080 
	C445.501587,377.138702 446.598267,375.573273 449.342407,375.682037 
	C451.871826,375.782288 452.706696,377.313232 453.451233,379.306091 
	C457.237274,389.440002 461.079895,399.552765 464.924255,410.056732 
M447.163239,388.737335 
	C446.391296,391.495148 444.344299,393.964294 445.106018,397.361816 
	C447.964508,397.606049 450.668213,398.226196 453.826172,396.590576 
	C452.343384,392.635468 450.932343,388.871735 449.490784,385.026581 
	C447.859070,385.795532 447.937592,387.129089 447.163239,388.737335 
z"/>
<path fill="#000000" opacity="1.000000" stroke="none" 
	d="
M786.268433,411.384766 
	C785.144653,410.411194 784.906860,409.212891 782.947937,410.295898 
	C776.818115,413.684723 772.138123,412.799835 768.249390,408.170929 
	C763.973145,403.080811 763.676270,394.456970 767.590515,389.032318 
	C771.091797,384.179932 775.960693,382.969574 782.146973,385.402466 
	C782.733765,385.633209 783.344971,385.801910 784.026855,386.026428 
	C785.427124,383.498718 784.559814,380.962524 784.812622,378.552734 
	C785.009766,376.672699 785.023682,374.730743 787.690552,374.795349 
	C790.023743,374.851837 790.255127,376.520569 790.256653,378.278442 
	C790.265564,388.276184 790.258911,398.273895 790.242859,408.271637 
	C790.238953,410.716370 789.245239,412.103302 786.268433,411.384766 
M784.621399,400.812958 
	C784.893188,398.671021 785.040894,396.522644 784.297852,394.446106 
	C782.830505,390.345123 778.824036,388.390717 775.278992,390.046509 
	C771.414124,391.851776 770.305664,395.356995 770.593628,399.103638 
	C770.866638,402.655853 772.282166,405.947693 776.471680,406.681976 
	C780.625916,407.410126 782.975220,405.150146 784.621399,400.812958 
z"/>
<path fill="#000000" opacity="1.000000" stroke="none" 
	d="
M525.273804,402.003296 
	C521.642151,412.238800 516.395020,414.443237 505.309662,410.032776 
	C505.309662,413.053528 505.317902,415.768890 505.306580,418.484192 
	C505.299835,420.097382 505.022125,421.549713 502.939178,421.532227 
	C500.824768,421.514465 500.653900,419.993164 500.653351,418.417114 
	C500.649963,408.280853 500.659760,398.144623 500.665985,388.008362 
	C500.667145,386.122589 501.605927,383.982727 503.387634,385.048523 
	C506.338043,386.813446 508.402130,385.077393 510.808380,384.431061 
	C517.254028,382.699707 524.368591,387.653870 525.227905,394.646606 
	C525.509338,396.937561 525.297607,399.289124 525.273804,402.003296 
M518.251099,392.459625 
	C515.408081,389.579590 512.339966,388.119629 508.678558,391.081757 
	C505.395172,393.738129 504.530182,398.776245 506.506012,402.831024 
	C508.239777,406.389038 511.177399,407.626953 514.720764,406.506531 
	C519.349426,405.042908 520.111633,401.109863 519.723572,396.869110 
	C519.606628,395.591003 519.032288,394.354736 518.251099,392.459625 
z"/>
<path fill="#000000" opacity="1.000000" stroke="none" 
	d="
M693.348877,396.991089 
	C693.347534,401.949097 693.347534,406.409119 693.347534,410.615204 
	C690.733215,412.099182 689.146606,411.635406 688.138855,409.374634 
	C681.910889,413.402191 676.466309,413.284149 672.362915,409.050537 
	C667.684570,404.223602 667.040894,394.709595 671.014771,389.122711 
	C674.938110,383.606903 679.813965,382.822327 688.677124,386.580444 
	C688.677124,383.426483 688.656555,380.481964 688.686340,377.537994 
	C688.700073,376.179657 688.740479,374.807526 690.675415,374.743347 
	C692.657410,374.677643 693.288330,375.784393 693.292480,377.538666 
	C693.307617,383.856812 693.330383,390.174957 693.348877,396.991089 
M687.840088,394.731476 
	C686.419617,391.091583 683.935242,388.757294 679.870056,389.610779 
	C676.192261,390.382935 674.438843,393.170197 674.209656,396.876953 
	C673.958984,400.929810 674.630615,404.787781 678.858643,406.389252 
	C682.300842,407.693054 685.501038,406.652374 687.242554,403.095764 
	C688.414917,400.701508 689.243896,398.146301 687.840088,394.731476 
z"/>
<path fill="#000000" opacity="1.000000" stroke="none" 
	d="
M467.722595,467.097046 
	C461.917480,468.091217 456.933197,467.467407 453.713989,462.392548 
	C450.436462,457.225739 450.309998,451.736572 453.007904,446.265442 
	C455.651581,440.904297 461.733795,438.353821 467.296875,440.133270 
	C472.403992,441.766907 476.106995,447.597321 475.688751,453.001465 
	C475.459351,455.965729 473.363617,455.862671 471.405365,455.902618 
	C469.087585,455.949982 466.765533,455.718201 464.444000,455.668457 
	C462.320282,455.622925 460.194794,455.658813 458.010040,455.658813 
	C458.862885,461.470703 463.165771,463.652527 467.551575,460.959808 
	C468.525757,460.361694 469.244629,459.354919 470.204865,458.725067 
	C471.546509,457.845032 473.157898,457.659882 474.403595,458.692291 
	C475.994171,460.010529 474.796753,461.427643 473.990692,462.621521 
	C472.553436,464.750305 470.517120,466.153137 467.722595,467.097046 
M458.248077,450.145874 
	C461.932220,450.856232 465.597198,451.225159 469.290497,449.915588 
	C468.591492,446.390869 466.541931,445.000763 463.532593,445.074738 
	C460.621216,445.146301 458.354340,446.274323 458.248077,450.145874 
z"/>
<path fill="#000000" opacity="1.000000" stroke="none" 
	d="
M703.633301,446.626984 
	C702.000916,448.965485 699.923401,450.274353 697.978455,448.519928 
	C695.777283,446.534454 697.937134,444.497131 699.332153,443.031219 
	C702.632568,439.562927 706.875977,438.986664 711.306702,440.108917 
	C715.582275,441.191895 718.340576,444.032471 718.641602,448.509491 
	C718.986084,453.634216 718.932007,458.788544 718.958679,463.930511 
	C718.969971,466.104279 717.592957,467.992767 715.611023,466.993073 
	C712.628601,465.488831 710.289062,466.796753 707.625549,467.346924 
	C701.677368,468.575623 696.274719,464.971252 695.778992,459.656799 
	C695.323181,454.770203 699.447266,450.985443 705.550903,450.702942 
	C706.380066,450.664520 707.229553,450.792297 708.039062,450.658569 
	C709.770020,450.372589 712.653198,451.613159 712.456665,448.361938 
	C712.296936,445.719849 709.958435,445.126648 707.617554,445.169922 
	C706.277527,445.194672 704.958191,445.372742 703.633301,446.626984 
M710.831970,455.428070 
	C708.707275,455.512054 706.506287,455.279785 704.479431,455.768921 
	C702.454529,456.257629 700.658325,457.776154 702.195984,460.116302 
	C703.986816,462.841949 706.719421,463.222076 709.572144,461.700531 
	C712.104858,460.349579 714.053406,458.681793 710.831970,455.428070 
z"/>
<path fill="#000000" opacity="1.000000" stroke="none" 
	d="
M647.988586,403.206848 
	C651.925049,407.757629 655.009094,408.130493 659.060425,404.482941 
	C660.906860,402.820557 662.572754,402.138489 664.772583,403.469391 
	C663.934998,409.579651 658.515076,413.185913 651.670227,412.243286 
	C644.865967,411.306244 640.020935,404.184204 641.035095,396.610046 
	C642.127075,388.454803 648.016907,383.155334 654.994995,384.049469 
	C662.151062,384.966370 665.940063,390.853851 664.942566,400.310822 
	C660.463318,400.310822 655.882874,400.235352 651.307434,400.352356 
	C649.732971,400.392578 647.182190,399.580566 647.988586,403.206848 
M658.481506,394.775146 
	C659.743347,390.369873 656.517944,389.579102 653.598572,389.463318 
	C650.170166,389.327332 647.640137,390.954132 647.797180,395.210114 
	C651.317444,395.862213 654.587646,395.865814 658.481506,394.775146 
z"/>
<path fill="#000000" opacity="1.000000" stroke="none" 
	d="
M601.008667,386.900818 
	C610.597290,381.146332 619.100647,385.244446 620.649658,395.819214 
	C621.139648,399.164276 620.116333,400.401093 616.777039,400.393585 
	C612.178284,400.383240 607.534424,399.831635 602.943542,400.799469 
	C604.048218,407.042572 609.185120,408.964355 613.729309,404.852417 
	C615.684998,403.082703 617.323425,402.015045 619.759949,403.562683 
	C619.070618,408.672028 616.299805,411.430389 611.115295,412.234650 
	C605.157043,413.158936 600.019592,410.846069 597.848450,405.655518 
	C595.074768,399.024231 595.456238,392.643768 601.008667,386.900818 
M612.519470,395.527100 
	C615.225769,394.988373 614.571472,393.374756 613.542358,391.896362 
	C612.088684,389.808014 609.980835,388.969513 607.472290,389.537476 
	C604.679260,390.169861 602.880371,391.732239 602.672485,394.854218 
	C605.843506,396.201508 608.832397,395.412628 612.519470,395.527100 
z"/>
<path fill="#000000" opacity="1.000000" stroke="none" 
	d="
M800.916260,401.170410 
	C802.896362,407.496735 807.359131,408.818634 812.031067,404.570831 
	C813.895325,402.875916 815.521423,402.200775 817.946533,403.619598 
	C817.797241,408.682007 814.269714,410.711670 810.164062,411.943176 
	C805.037170,413.481018 799.695129,411.543640 796.835266,407.453247 
	C793.216797,402.277863 793.451233,393.605377 797.343689,388.644196 
	C800.674561,384.398743 806.264832,382.941406 811.266907,385.014587 
	C815.704529,386.853790 819.249023,392.824280 818.849731,397.553802 
	C818.634033,400.108398 816.955750,400.293915 814.994263,400.369659 
	C810.365540,400.548340 805.697632,399.671143 800.916260,401.170410 
M810.611328,395.546783 
	C813.673218,394.659088 812.342834,392.938751 811.254700,391.499146 
	C809.849548,389.640106 807.799683,389.013123 805.549561,389.437683 
	C802.708557,389.973724 801.055603,391.736664 800.440552,394.664093 
	C803.662109,396.109314 806.801086,395.472137 810.611328,395.546783 
z"/>
<path fill="#000000" opacity="1.000000" stroke="none" 
	d="
M643.201660,454.480164 
	C646.566101,450.686157 650.680359,450.532928 654.916382,450.640503 
	C656.321106,450.676208 658.268311,451.052490 658.403992,448.881683 
	C658.521973,446.993652 657.114746,445.835876 655.393311,445.419861 
	C652.828186,444.799896 650.397766,445.102264 648.666077,447.409119 
	C647.235107,449.315521 645.212830,450.026123 643.568176,448.421692 
	C641.744385,446.642487 643.313049,444.603577 644.660828,443.208466 
	C648.258606,439.484283 652.801636,438.814056 657.532898,440.291046 
	C661.975952,441.678040 664.210144,445.049011 664.288940,449.703491 
	C664.367615,454.352814 664.306824,459.004425 664.321289,463.654968 
	C664.327820,465.752319 663.278687,468.065033 661.331421,466.927765 
	C658.361755,465.193420 656.262390,466.705200 653.707153,467.227997 
	C650.015564,467.983185 646.375122,467.694946 643.662842,464.493866 
	C641.078369,461.443695 641.073059,458.187744 643.201660,454.480164 
M649.792114,461.775848 
	C650.241760,461.977142 650.672974,462.272675 651.143982,462.364349 
	C654.097961,462.939606 656.227661,461.566223 657.901917,459.322723 
	C658.622131,458.357697 659.092529,457.011200 658.094116,456.167725 
	C656.141357,454.517975 653.659058,455.233337 651.465393,455.491394 
	C647.520203,455.955505 646.874451,457.878632 649.792114,461.775848 
z"/>
<path fill="#000000" opacity="1.000000" stroke="none" 
	d="
M534.684143,410.715454 
	C528.672363,405.876587 526.734009,398.851166 529.298340,392.215881 
	C531.227173,387.224854 536.122437,383.849426 541.286377,383.949799 
	C547.015625,384.061157 551.439941,387.304565 553.296265,392.806915 
	C555.336426,398.854126 554.475952,404.408417 549.856323,408.932983 
	C545.516602,413.183441 540.363403,413.201843 534.684143,410.715454 
M548.640198,397.644165 
	C548.201050,393.424652 546.293701,390.236908 541.888611,389.509064 
	C538.498596,388.948914 535.997498,390.831512 534.885071,393.931854 
	C533.535278,397.693634 533.648193,401.494049 536.386414,404.769348 
	C538.210083,406.950714 540.701355,407.328247 543.222778,406.544067 
	C547.114624,405.333618 548.383606,402.161926 548.640198,397.644165 
z"/>
<path fill="#000000" opacity="1.000000" stroke="none" 
	d="
M752.286255,384.326782 
	C760.318176,387.305695 763.380859,392.701935 762.244324,401.301239 
	C761.469177,407.165314 756.869324,411.716522 751.060120,412.262909 
	C745.793457,412.758270 741.502075,410.895050 738.815186,406.302490 
	C735.738892,401.044434 735.580139,395.492859 738.759583,390.227600 
	C741.697388,385.362457 746.204285,383.344666 752.286255,384.326782 
M756.728577,397.687866 
	C756.421448,394.196014 755.242615,391.209412 751.730530,389.799622 
	C749.169434,388.771606 746.678894,389.368317 744.878174,391.288116 
	C741.694946,394.681793 741.666809,398.728760 743.373108,402.834351 
	C744.799438,406.266296 747.642761,407.447845 751.055237,406.683411 
	C755.282715,405.736420 756.657349,402.481842 756.728577,397.687866 
z"/>
<path fill="#000000" opacity="1.000000" stroke="none" 
	d="
M740.600769,445.488556 
	C742.207642,449.364136 743.665771,452.885529 745.382935,457.032654 
	C748.400452,452.697937 749.104492,448.110779 750.750671,443.939362 
	C751.647644,441.666321 752.516052,439.158051 755.549988,440.233063 
	C758.797302,441.383636 756.872620,443.862244 756.206116,445.677185 
	C753.224670,453.795654 750.179138,461.893219 746.980286,469.928101 
	C745.384216,473.937286 743.072510,477.390381 737.984497,477.233032 
	C736.600281,477.190186 735.252502,476.934967 734.922363,475.280731 
	C734.567627,473.502808 735.452026,472.687744 737.113220,471.996460 
	C742.538757,469.738800 743.632446,466.877502 741.366150,461.471222 
	C738.665283,455.028107 735.911377,448.607269 733.204651,442.166565 
	C733.091919,441.898254 733.225098,441.526550 733.261414,440.894287 
	C737.862061,438.467865 739.220947,441.684021 740.600769,445.488556 
z"/>
<path fill="#000000" opacity="1.000000" stroke="none" 
	d="
M679.621399,445.501892 
	C676.222961,446.918182 675.320007,449.436218 675.321716,452.494171 
	C675.323853,456.326599 675.306152,460.159241 675.262878,463.991394 
	C675.244629,465.608917 674.869751,467.015076 672.840088,467.091034 
	C670.704468,467.170959 669.813354,465.967682 669.803833,464.007660 
	C669.769775,457.009735 669.761475,450.011597 669.773315,443.013580 
	C669.776855,440.928925 671.198181,439.462952 672.913147,440.242462 
	C675.868713,441.585876 678.286743,440.338135 680.985596,439.826111 
	C686.781006,438.726562 691.254578,441.851807 692.357239,447.577515 
	C693.373962,452.856964 693.019470,458.203613 692.853882,463.528107 
	C692.792480,465.505493 692.167664,467.234406 689.660583,467.062653 
	C687.484131,466.913544 686.983765,465.315125 686.949341,463.538788 
	C686.875000,459.707672 686.950623,455.873474 686.866699,452.042725 
	C686.745361,446.504913 685.709106,445.542999 679.621399,445.501892 
z"/>
<path fill="#000000" opacity="1.000000" stroke="none" 
	d="
M482.259521,453.918121 
	C478.609039,451.249390 477.929932,448.095367 479.697388,444.466034 
	C481.512909,440.737885 486.401917,438.795227 491.405457,439.883087 
	C495.435699,440.759399 498.428192,442.766144 498.367371,447.517395 
	C496.261139,448.773682 494.458313,448.589844 492.872955,446.908478 
	C491.509888,445.462891 489.875824,444.856079 487.923462,445.145630 
	C486.529358,445.352356 485.247650,445.921906 484.918976,447.389709 
	C484.521515,449.164581 486.052277,449.668823 487.273773,450.055695 
	C489.485199,450.756012 491.806732,451.116364 494.002899,451.854919 
	C496.821716,452.802917 498.994019,454.455841 499.323608,457.761353 
	C499.667297,461.208160 498.666473,463.926239 495.621368,465.862427 
	C490.145386,469.344330 478.376587,467.438385 478.274933,459.065857 
	C480.506561,457.774567 482.531677,458.102722 484.317200,460.082092 
	C485.593994,461.497528 487.066986,462.541565 489.021088,462.569489 
	C490.964386,462.597290 492.878815,462.036896 493.387909,459.992188 
	C493.973511,457.640137 492.112640,456.888672 490.231842,456.359436 
	C487.679443,455.641296 485.141815,454.870667 482.259521,453.918121 
z"/>
<path fill="#000000" opacity="1.000000" stroke="none" 
	d="
M765.499390,454.874481 
	C761.452698,453.050018 759.057068,450.600098 760.230042,446.178162 
	C761.319946,442.069397 765.225464,439.592163 770.270813,439.694214 
	C775.617126,439.802399 778.351257,442.033295 779.643066,447.472656 
	C777.574585,448.812042 775.688965,448.599976 773.973694,446.795288 
	C772.786011,445.545563 771.427612,444.507538 769.645996,444.761658 
	C767.988342,444.998077 766.202087,445.596375 765.865662,447.496582 
	C765.502686,449.546661 767.434753,449.805389 768.778931,450.215698 
	C770.992920,450.891571 773.321411,451.203217 775.517517,451.924500 
	C778.432251,452.881866 780.156250,454.968719 780.638855,458.072693 
	C781.134155,461.258911 779.642944,463.464172 777.336975,465.373749 
	C772.377502,469.480713 759.537292,467.687012 759.581116,459.253265 
	C761.738525,458.273834 763.729248,457.854889 765.513123,460.274719 
	C766.529358,461.653259 768.049805,462.502106 769.782715,462.541168 
	C771.863647,462.588104 773.974121,462.091583 774.494019,459.762604 
	C775.037964,457.325958 773.020020,456.755096 771.188416,456.294312 
	C769.419189,455.849274 767.639709,455.445068 765.499390,454.874481 
z"/>
<path fill="#000000" opacity="1.000000" stroke="none" 
	d="
M796.656494,464.521912 
	C795.244019,462.838318 793.995605,461.467133 794.430359,459.333344 
	C796.561157,457.931061 798.459045,458.170227 800.158142,460.059082 
	C801.428101,461.470886 802.945129,462.514832 804.871399,462.558807 
	C806.975891,462.606934 809.050964,462.053406 809.494995,459.675842 
	C809.951477,457.231689 807.932434,456.743317 806.099182,456.254883 
	C803.696533,455.614746 801.195862,455.168243 798.945435,454.169525 
	C794.961060,452.401306 793.593567,448.387115 795.591736,444.613770 
	C797.973450,440.116302 802.165955,439.233643 806.712036,439.845703 
	C810.997803,440.422760 814.184021,442.465302 814.518127,447.394409 
	C812.271118,448.918579 810.394897,448.572052 808.727417,446.700073 
	C807.794739,445.652985 806.612183,444.993469 805.270630,444.886261 
	C803.388184,444.735901 801.306885,444.976440 800.750122,447.082153 
	C800.157959,449.321533 802.341797,449.744843 803.827332,450.244141 
	C805.866577,450.929565 808.052551,451.176971 810.094238,451.856689 
	C812.933960,452.802094 815.049316,454.492554 815.316162,457.816681 
	C815.593018,461.264648 814.697205,464.185333 811.478333,465.817413 
	C806.479004,468.352295 801.562195,468.191528 796.656494,464.521912 
z"/>
<path fill="#000000" opacity="1.000000" stroke="none" 
	d="
M538.780273,441.110870 
	C548.265076,437.524902 554.209167,441.574097 554.330872,451.351044 
	C554.376343,455.007996 554.399170,458.667206 554.321960,462.323029 
	C554.278442,464.382690 554.829895,467.149109 551.475708,466.997253 
	C548.278137,466.852539 548.827698,464.134216 548.777954,462.065399 
	C548.690002,458.409821 548.777161,454.750183 548.704773,451.093964 
	C548.635254,447.582123 546.949646,445.340179 543.282043,445.300934 
	C539.488159,445.260315 537.419800,447.376221 537.294922,451.148163 
	C537.163025,455.134338 537.244080,459.127167 537.181213,463.116272 
	C537.151672,464.993683 537.044495,467.011475 534.481567,467.059296 
	C531.897583,467.107483 531.727783,465.126526 531.715820,463.221405 
	C531.680176,457.569061 531.662964,451.916412 531.679871,446.264008 
	C531.699951,439.567596 532.020020,439.344177 538.780273,441.110870 
z"/>
<path fill="#000000" opacity="1.000000" stroke="none" 
	d="
M716.915161,404.013947 
	C721.699158,408.009644 724.885864,408.019226 728.115601,403.806335 
	C729.780640,401.634460 731.346924,401.304504 733.573303,402.300201 
	C733.563354,408.838104 728.974243,412.670563 721.694763,412.306488 
	C716.123474,412.027893 712.130676,409.006775 710.453796,403.333618 
	C708.698059,397.393524 709.234436,391.749542 714.024719,387.253479 
	C717.961182,383.558807 723.428833,383.038696 728.394287,385.566589 
	C730.547668,386.662872 732.275330,388.193115 733.133606,390.466309 
	C733.622070,391.760071 734.826843,393.366791 733.019592,394.467590 
	C731.290344,395.520874 729.497925,395.259155 728.128235,393.583649 
	C727.816162,393.201813 727.644714,392.707916 727.351257,392.307556 
	C725.745056,390.116730 723.628845,388.941742 720.890259,389.543365 
	C718.216675,390.130768 716.543091,391.963409 715.836548,394.547241 
	C714.981689,397.673523 714.928955,400.786926 716.915161,404.013947 
z"/>
<path fill="#000000" opacity="1.000000" stroke="none" 
	d="
M448.330383,466.524139 
	C440.289703,467.991516 437.089722,465.373077 436.888824,457.655670 
	C436.823914,455.162140 436.865967,452.665924 436.841827,450.171112 
	C436.833771,449.340546 437.086151,448.002075 436.687775,447.755768 
	C429.679657,443.422760 436.486725,439.618073 437.102020,435.617798 
	C437.309967,434.265686 438.352081,433.775787 439.647736,433.707489 
	C441.132294,433.629272 442.489502,434.008392 442.607819,435.647003 
	C442.828400,438.701660 444.496735,439.943817 447.336914,440.380310 
	C448.608673,440.575714 449.048218,441.831604 448.985626,443.118835 
	C448.916351,444.543060 448.043182,445.314240 446.739746,445.264099 
	C442.522491,445.101898 442.287811,447.557404 442.736816,450.809326 
	C443.030670,452.937592 442.908630,455.124695 442.951050,457.285889 
	C442.997711,459.661652 443.623413,461.521454 446.407043,461.918365 
	C449.055725,462.296082 449.651672,463.889496 448.330383,466.524139 
z"/>
<path fill="#000000" opacity="1.000000" stroke="none" 
	d="
M511.312256,446.036865 
	C509.756744,450.293030 510.900787,454.422760 510.739746,458.513611 
	C510.648621,460.828064 512.633972,461.788788 514.851807,461.997253 
	C516.435242,462.146057 517.191223,463.096069 517.139099,464.675140 
	C517.075562,466.597778 515.826843,467.067596 514.163757,467.277191 
	C509.211975,467.901337 505.300262,464.909576 504.934174,459.861328 
	C504.706787,456.725311 504.904846,453.560669 504.819366,450.411346 
	C504.763916,448.368622 505.420990,446.091461 502.351410,445.220490 
	C500.571259,444.715485 500.529999,441.852356 501.447479,441.595703 
	C505.658020,440.417542 503.771881,432.010284 508.514496,434.224976 
	C511.307251,435.529144 514.900085,439.366638 516.542358,442.548920 
	C518.361450,446.073883 513.407715,444.767731 511.312256,446.036865 
z"/>
<path fill="#000000" opacity="1.000000" stroke="none" 
	d="
M468.791931,401.926178 
	C468.797150,394.456818 468.763367,387.477081 468.834900,380.498474 
	C468.856140,378.425659 468.429108,375.859070 471.765045,375.808594 
	C475.102448,375.758057 474.806488,378.287292 474.789154,380.388580 
	C474.716736,389.186340 474.587250,397.984222 474.387238,406.779968 
	C474.342041,408.768311 475.145782,411.597992 471.753265,411.626648 
	C468.559662,411.653687 468.882172,409.045441 468.821747,406.902740 
	C468.779602,405.408173 468.800446,403.911804 468.791931,401.926178 
z"/>
<path fill="#000000" opacity="1.000000" stroke="none" 
	d="
M633.090454,391.038330 
	C630.739624,393.090546 630.263977,395.456665 630.292175,398.055359 
	C630.330078,401.548828 630.279968,405.043518 630.244751,408.537415 
	C630.228149,410.187408 629.759766,411.549683 627.777100,411.593048 
	C625.712341,411.638275 624.757141,410.529480 624.758545,408.508179 
	C624.763428,401.520508 624.752991,394.532776 624.772156,387.545166 
	C624.777161,385.737244 626.095703,384.122620 627.478577,384.925659 
	C630.687073,386.788910 633.161499,384.995422 635.937439,384.234894 
	C637.612427,383.776001 639.446655,383.802094 640.008118,385.919891 
	C640.616638,388.215393 639.407288,389.219360 637.125488,389.484436 
	C635.849060,389.632690 634.637878,390.343384 633.090454,391.038330 
z"/>
<path fill="#000000" opacity="1.000000" stroke="none" 
	d="
M724.078003,454.974976 
	C724.081543,447.851044 724.040466,441.221497 724.115112,434.593231 
	C724.137146,432.634918 724.087952,430.251221 726.987122,430.315002 
	C729.728455,430.375244 729.296692,432.673767 729.304138,434.409302 
	C729.345398,444.021576 729.330139,453.634155 729.313965,463.246613 
	C729.310791,465.112305 729.329407,467.155060 726.632996,467.022705 
	C724.413879,466.913788 724.147217,465.150391 724.110168,463.424438 
	C724.053223,460.773895 724.083984,458.121460 724.078003,454.974976 
z"/>
<path fill="#000000" opacity="1.000000" stroke="none" 
	d="
M784.659058,456.959473 
	C784.672302,452.153198 784.693176,447.838776 784.698792,443.524384 
	C784.701233,441.623474 785.343933,440.214020 787.490845,440.213043 
	C789.647400,440.212067 790.263733,441.630371 790.263000,443.530579 
	C790.260315,450.168152 790.287781,456.805756 790.273010,463.443268 
	C790.269165,465.199066 789.966492,466.873993 787.724670,467.003571 
	C785.201111,467.149384 784.726624,465.442291 784.702209,463.424744 
	C784.678162,461.433716 784.673584,459.442505 784.659058,456.959473 
z"/>
<path fill="#000000" opacity="1.000000" stroke="none" 
	d="
M526.326416,455.976227 
	C526.312317,458.954041 526.310913,461.437683 526.280396,463.920929 
	C526.257202,465.807007 525.618164,467.184387 523.410828,467.090973 
	C521.555359,467.012451 520.770813,465.868469 520.765076,464.160645 
	C520.741882,457.207153 520.748352,450.253510 520.772156,443.299988 
	C520.778625,441.402130 521.548584,440.031830 523.676697,440.100372 
	C525.880737,440.171295 526.294006,441.743774 526.297791,443.560577 
	C526.305969,447.534332 526.316833,451.508118 526.326416,455.976227 
z"/>
<path fill="#000000" opacity="1.000000" stroke="none" 
	d="
M480.704712,398.522461 
	C479.632141,396.519562 479.443939,394.668396 481.624054,394.220337 
	C485.537018,393.416168 489.550476,393.678802 493.515228,394.074127 
	C494.930908,394.215302 495.308807,395.387390 495.331238,396.644806 
	C495.359955,398.251953 494.546509,399.172180 492.940887,399.179596 
	C488.972900,399.197937 484.985474,399.746887 480.704712,398.522461 
z"/>
<path fill="#000000" opacity="1.000000" stroke="none" 
	d="
M521.084290,436.076416 
	C519.667542,433.935974 519.902466,432.319244 521.789673,431.204407 
	C523.166687,430.390961 524.638794,430.523560 525.831177,431.674438 
	C527.018494,432.820465 527.335388,434.253815 526.371582,435.642120 
	C525.016724,437.593842 523.261841,437.789459 521.084290,436.076416 
z"/>
<path fill="#000000" opacity="1.000000" stroke="none" 
	d="
M789.279663,436.556824 
	C786.660156,437.735016 785.117981,436.824280 784.215027,434.702393 
	C783.597046,433.250183 784.331238,432.113678 785.517395,431.341034 
	C786.898010,430.441803 788.391174,430.471863 789.619690,431.593567 
	C791.281494,433.111053 791.085754,434.752472 789.279663,436.556824 
z"/>
<path fill="#000000" opacity="1.000000" stroke="none" 
	d="
M283.519958,227.297745 
	C295.785400,221.016922 305.296204,223.009872 313.262665,233.434738 
	C314.478607,235.025894 315.916779,235.755402 317.697571,236.340790 
	C330.216675,240.456085 336.127014,249.055145 335.048340,261.953217 
	C334.853424,264.283905 335.624268,265.615479 337.094910,267.140656 
	C349.361450,279.862000 349.573059,295.894012 337.575836,309.024078 
	C335.841064,310.922638 335.269958,312.804810 335.281921,315.280914 
	C335.348694,329.113312 330.392487,336.225555 317.609955,340.846497 
	C316.005005,341.426697 314.663635,342.193085 313.535980,343.543243 
	C302.788849,356.411407 292.654785,357.377777 279.071381,346.864380 
	C277.560089,346.832947 276.856262,348.150726 275.848419,348.941315 
	C265.938324,356.715179 252.428680,355.094391 244.935287,345.010101 
	C243.162369,342.624176 241.251938,341.073761 238.380905,340.104462 
	C228.414612,336.739685 222.174194,327.680634 222.582932,317.170837 
	C222.715027,313.773956 222.019531,311.339691 219.484634,308.815186 
	C208.573654,297.949127 208.098801,280.570648 218.408615,269.018616 
	C221.216721,265.872162 222.737076,263.049866 222.588608,258.552277 
	C222.249023,248.265884 228.252594,240.505188 238.438126,236.723343 
	C240.811478,235.842133 242.819138,234.885193 244.444534,232.676956 
	C251.819672,222.657059 264.061249,220.489670 274.425354,227.749481 
	C277.947571,230.216736 280.356354,230.685593 283.519958,227.297745 
M280.223572,274.067566 
	C275.652740,274.460876 273.815887,271.915375 273.756317,267.785217 
	C273.655365,260.787048 273.759979,253.786102 273.685486,246.787292 
	C273.619781,240.610962 270.896759,236.549774 265.684113,234.878494 
	C261.085632,233.404129 257.071198,234.453140 254.070099,238.309372 
	C250.801270,242.509674 250.515732,250.037598 253.294968,254.029449 
	C255.146652,253.905319 255.998611,252.205917 257.417419,251.391647 
	C259.820953,250.012207 262.182831,249.796799 264.337463,251.735443 
	C266.446472,253.633026 265.996246,255.930069 264.919861,258.156464 
	C262.817474,262.505035 256.165222,265.867035 250.988556,265.262207 
	C246.357391,264.721161 242.620361,261.046692 241.461548,255.635147 
	C240.953430,253.262283 240.800079,250.813446 240.475601,248.322006 
	C234.453079,250.733109 232.030441,255.639923 233.915558,262.092346 
	C235.012604,265.847290 234.081589,268.564636 231.182053,270.897858 
	C230.014816,271.837097 228.877991,272.823303 227.801743,273.864990 
	C218.419250,282.946350 219.406891,297.109955 230.142990,304.560150 
	C233.677277,307.012726 234.704269,309.617981 233.666397,313.858551 
	C231.899277,321.078796 234.615646,326.311584 240.900803,328.960724 
	C242.180191,326.315735 243.284332,323.543427 244.804947,321.022308 
	C246.442200,318.307831 248.333954,315.251129 252.270798,317.580322 
	C255.625626,319.565216 256.256592,323.685516 253.619415,327.085846 
	C251.197205,330.208923 250.733765,333.329559 252.364349,336.855194 
	C254.262436,340.959198 259.325867,343.972565 263.246948,343.314087 
	C269.023926,342.343933 273.297028,337.917755 273.604584,332.095642 
	C273.859253,327.275513 273.687317,322.432556 273.694550,317.599731 
	C273.700439,313.659363 273.613098,309.043823 278.889557,309.049347 
	C284.219208,309.054932 283.315247,313.841980 283.445587,317.399841 
	C283.664276,323.368713 282.652100,329.418365 284.511169,335.277222 
	C286.278229,340.846008 291.985229,344.116364 297.446350,342.786469 
	C303.114685,341.406128 305.849518,337.529633 305.037201,332.025482 
	C303.584106,331.834930 302.048889,331.880096 300.693787,331.408173 
	C297.094971,330.154938 295.997131,326.789124 298.242126,323.878815 
	C301.930450,319.097504 307.241272,319.144287 312.405273,319.863556 
	C317.051483,320.510651 316.061340,324.663452 316.441895,327.837128 
	C316.475769,328.119537 316.768951,328.370911 316.952087,328.629913 
	C321.840485,326.947693 325.089752,322.751801 324.761566,318.534119 
	C324.366760,313.460205 320.349457,315.831573 317.836243,315.242493 
	C315.031311,314.585052 313.185760,313.052643 313.362793,310.144928 
	C313.544617,307.158386 315.245331,305.309875 318.511261,305.151978 
	C327.753540,304.705231 332.326385,301.503662 334.620514,294.008759 
	C337.103821,285.895813 334.897461,277.296967 328.348724,273.037903 
	C324.099976,270.274658 323.206696,267.486328 324.426117,262.677765 
	C326.404541,254.876236 323.444946,249.946655 316.661438,248.001511 
	C310.612427,259.085388 305.623016,261.735107 295.482727,259.539001 
	C292.934631,258.987152 290.851318,258.145233 290.925354,255.255997 
	C290.996948,252.461700 292.786713,250.654572 295.424286,249.934692 
	C296.678986,249.592255 298.068634,249.736908 299.397888,249.676727 
	C304.611145,249.440598 306.792023,246.224991 304.970398,241.267395 
	C303.282379,236.673279 299.796021,234.422714 294.994965,234.410110 
	C290.021484,234.397049 285.550385,238.188446 284.330261,243.358719 
	C282.583344,250.761459 283.568634,258.291992 283.501465,265.768555 
	C283.474060,268.817993 283.540924,271.797150 281.011017,273.999664 
	C281.011017,273.999664 281.046173,273.975189 280.223572,274.067566 
z"/>
<path fill="#000000" opacity="1.000000" stroke="none" 
	d="
M235.967133,290.943726 
	C236.653412,286.463654 240.345200,284.907837 242.974747,282.499084 
	C245.790070,279.920135 248.813889,277.557129 251.848480,275.232758 
	C254.468887,273.225647 257.512268,272.506836 259.880035,275.242889 
	C262.342834,278.088745 260.778259,280.917267 258.492920,283.171448 
	C255.917603,285.711639 252.631058,287.516357 250.432480,290.743164 
	C252.122421,294.121613 255.550446,295.513184 258.000549,297.889648 
	C260.713165,300.520752 263.081970,303.515564 260.088623,306.878601 
	C257.337006,309.970062 253.863480,308.468781 251.286194,305.994324 
	C246.189285,301.100800 239.321716,298.043640 235.967133,290.943726 
z"/>
<path fill="#000000" opacity="1.000000" stroke="none" 
	d="
M319.072876,290.139404 
	C318.782806,294.333801 315.681702,295.990112 313.169678,298.097168 
	C309.604492,301.087555 306.104034,304.164612 302.413177,306.992218 
	C299.923645,308.899506 297.070557,309.255981 294.843658,306.591339 
	C292.786255,304.129486 293.554230,301.447449 295.568024,299.385895 
	C297.765045,297.136780 300.290436,295.199982 302.735809,293.204376 
	C304.970764,291.380524 304.921204,289.832123 302.622101,288.037109 
	C300.139099,286.098480 297.662537,284.086182 295.531006,281.783966 
	C293.889771,280.011322 293.224884,277.683472 294.952789,275.409973 
	C296.659393,273.164551 299.387726,272.829254 301.222168,274.147919 
	C307.640167,278.761536 314.463928,283.003845 319.072876,290.139404 
z"/>
<path fill="#000000" opacity="1.000000" stroke="none" 
	d="
M280.995422,274.014160 
	C283.555023,273.813232 286.361877,272.708344 288.287964,275.457092 
	C290.234039,278.234375 288.879272,280.784241 287.556000,283.353363 
	C283.992310,290.272064 280.446289,297.201111 277.004272,304.180786 
	C275.318665,307.598877 272.823761,309.802094 269.135406,307.995972 
	C265.458618,306.195557 266.277649,302.749939 267.774353,299.769348 
	C272.008881,291.336578 276.372437,282.968628 280.865662,274.275146 
	C281.046173,273.975189 281.011017,273.999664 280.995422,274.014160 
z"/>
</svg>